<svg xmlns="http://www.w3.org/2000/svg" xmlns:xlink="http://www.w3.org/1999/xlink" fill="none" version="1.1" width="20" height="20" viewBox="0 0 20 20"><defs><mask id="master_svg0_3832_14897" style="mask-type:alpha" maskUnits="userSpaceOnUse"><g><rect x="0" y="0" width="20" height="20" rx="0" fill="#FFFFFF" fill-opacity="1"/></g></mask></defs><g mask="url(#master_svg0_3832_14897)"><g transform="matrix(0,1,-1,0,20.208874702453613,-16.31504726409912)"><path d="M27.332640983276367,5.360243719177246L32.697660983276364,10.725293719177246Q32.76736098327637,10.794943719177246,32.849260983276366,10.849663719177245Q32.93116098327637,10.904373719177245,33.022160983276365,10.942073719177246Q33.113160983276366,10.979763719177246,33.20976098327637,10.998973719177247Q33.30636098327636,11.018193719177246,33.40476098327637,11.018193719177246Q33.50326098327637,11.018193719177246,33.599860983276365,10.998973719177247Q33.69646098327637,10.979763719177246,33.78746098327637,10.942073719177246Q33.87846098327637,10.904373719177245,33.96036098327637,10.849663719177245Q34.042260983276364,10.794943719177246,34.11196098327637,10.725293719177246Q34.25256098327637,10.584643719177246,34.328660983276365,10.400873719177246Q34.40476098327637,10.217103719177246,34.40476098327637,10.018193719177246Q34.40476098327637,9.819273719177247,34.328660983276365,9.635503719177246Q34.25256098327637,9.451733719177245,34.11196098327637,9.311083719177246L27.040840983276368,2.240017719177246Q26.900190983276367,2.099364719177246,26.716420983276365,2.023244619177246Q26.53265098327637,1.9471241111772462,26.333740983276368,1.9471241031772462Q26.134830983276366,1.9471240951772462,25.951050983276367,2.023244519177246Q25.76728098327637,2.099364719177246,25.626630983276367,2.240017719177246Q25.61882098327637,2.247830719177246,25.611180983276366,2.255813719177246L18.555563983276368,9.311433719177245Q18.485919983276368,9.381073719177246,18.431201983276367,9.462963719177246Q18.376482983276368,9.544853719177247,18.338791483276367,9.635853719177245Q18.301100483276368,9.726843719177246,18.281885683276368,9.823443719177245Q18.262670955276366,9.920043719177247,18.262670922276367,10.018533719177245Q18.262670888276368,10.117023719177245,18.281885583276367,10.213623719177246Q18.301100283276366,10.310223719177246,18.338791283276368,10.401223719177246Q18.376481983276367,10.492213719177245,18.431200983276366,10.574103719177247Q18.485919983276368,10.656003719177246,18.555563983276368,10.725643719177246Q18.62520798327637,10.795283719177245,18.70709998327637,10.850003719177247Q18.788992983276366,10.904723719177246,18.879986983276368,10.942413719177246Q18.970980983276366,10.980103719177245,19.067579983276367,10.999323719177246Q19.16417898327637,11.018533719177245,19.26267098327637,11.018533719177245Q19.361160983276367,11.018533719177245,19.457760983276366,10.999323719177246Q19.554360983276368,10.980103719177245,19.645350983276366,10.942413719177246Q19.736350983276367,10.904723719177246,19.818240983276368,10.850003719177247Q19.900130983276366,10.795283719177245,19.969780983276365,10.725643719177246L25.332640983276367,5.362783719177246L25.332640983276367,17.984313719177248Q25.332640983276367,18.082713719177246,25.351850983276368,18.179313719177244Q25.37107098327637,18.275913719177247,25.408760983276366,18.366913719177248Q25.446450983276367,18.457913719177245,25.501170983276367,18.539813719177246Q25.555890983276367,18.621713719177247,25.625530983276366,18.691413719177245Q25.695180983276366,18.761013719177246,25.777070983276367,18.815713719177246Q25.85896098327637,18.870413719177247,25.949950983276366,18.908113719177248Q26.040950983276367,18.945813719177245,26.137550983276366,18.965013719177247Q26.23415098327637,18.984313719177248,26.332640983276367,18.984313719177248Q26.43113098327637,18.984313719177248,26.527730983276367,18.965013719177247Q26.624330983276366,18.945813719177245,26.715320983276367,18.908113719177248Q26.806320983276365,18.870413719177247,26.888210983276366,18.815713719177246Q26.970100983276367,18.761013719177246,27.039750983276367,18.691413719177245Q27.109390983276366,18.621713719177247,27.164110983276366,18.539813719177246Q27.21883098327637,18.457913719177245,27.256520983276367,18.366913719177248Q27.294210983276365,18.275913719177247,27.313420983276366,18.179313719177244Q27.332640983276367,18.082713719177246,27.332640983276367,17.984313719177248L27.332640983276367,5.360243719177246Z" fill-rule="evenodd" fill="#FFFFFF" fill-opacity="1"/></g></g></svg>