<svg xmlns="http://www.w3.org/2000/svg" xmlns:xlink="http://www.w3.org/1999/xlink" fill="none" version="1.1" width="192" height="34" viewBox="0 0 192 34"><g><g></g><g><path d="M33.1774147688061,20.9484C33.1225147688061,19.3581,32.7387147688061,17.7677,31.9709147688061,16.3968C31.2032147688061,14.971,30.1064147688061,13.7645,28.7354147688061,12.8871C26.7064147688061,11.571,24.348314768806098,11.0226,22.1548147688061,10.6936C21.6612147688061,10.6387,21.1677147688061,10.5839,20.6742147688061,10.4742L25.7193147688061,1.75484L22.5935147688061,0L20.7290147688061,3.23548C19.9612147688061,2.74194,19.0838147688061,2.24839,18.0967147688061,1.80968C17.0000147688061,1.31613,15.8483147688061,0.822581,14.4774147688061,0.712903C13.270914768806099,0.603226,11.9000147688061,0.493549,10.5838147688061,0.932258C10.2000147688061,1.04194,9.8161047688061,1.20645,9.4870647688061,1.37097C7.5677147688061,2.24839,6.1967447688060995,3.67419,5.7031947688060995,5.37419C5.5386847688061,5.97742,5.4290047688061,6.63548,5.4290047688061,7.29355C4.1128747688061,7.95161,3.0161047688061,9.04839,2.3580347688061,10.3645C1.6451347688061,11.9,1.6451347688061,13.5452,2.3031947688061,14.971C2.7419047688061,15.9581,3.6193247688061,16.8355,4.7161047688061,17.4935C5.8677147688061,18.1516,7.1290047688061,18.6452,8.6096547688061,18.9194C9.5419047688061,19.1387,10.4193147688061,19.2484,11.4064147688061,19.3581L10.5290147688061,20.8935C9.7064247688061,20.6742,8.8838447688061,20.5097,8.006424768806099,20.4C5.5386847688061,20.1806,3.2354547688061,20.8935,1.6451347688061,22.3742C0.8225527688060998,23.0871,0.3290037688060999,23.9645,0.10964936880609989,24.8968C-0.05486683119390011,25.7194,-0.000028031193900109053,26.5419,0.3290037688060999,27.3645C0.6031977688060999,28.0774,1.0967447688060998,28.7355,1.6451347688061,29.229C2.5225547688061,29.9968,3.6741647688061,30.5452,5.2096447688061,30.8194C6.0322347688060995,30.9839,6.9096447688061,31.0387,7.8419047688061,31.0387C8.9386847688061,31.0387,10.1451147688061,30.929,11.4612147688061,30.6548C12.9419147688061,30.3806,14.367714768806099,29.9419,15.7935147688061,29.5581C16.1774147688061,29.4484,16.5612147688061,29.3387,16.8903147688061,29.229C17.4935147688061,29.0645,18.0967147688061,28.8452,18.7548147688061,28.6806Q18.8096147688061,28.7355,18.8645147688061,28.7355C20.4000147688061,29.6677,22.2096147688061,30.7097,24.2935147688061,30.8194C24.4032147688061,30.8194,24.5677147688061,30.8194,24.6774147688061,30.8194C26.8161147688061,30.8194,28.9548147688061,29.8323,30.4903147688061,28.1323C32.1903147688061,26.2129,33.1774147688061,23.5258,33.1774147688061,20.9484Q33.1225147688061,20.9484,33.1774147688061,20.9484ZM9.1031947688061,6.41613C9.3773947688061,5.42903,10.3645147688061,4.88065,10.9129147688061,4.60645C11.132214768806099,4.49677,11.4064147688061,4.3871,11.6258147688061,4.33226C12.3387147688061,4.1129,13.270914768806099,4.16774,14.1483147688061,4.27742C14.9709147688061,4.33226,15.7387147688061,4.66129,16.6161147688061,5.1C17.4935147688061,5.48387,18.2612147688061,5.92258,18.9193147688061,6.36129L16.7258147688061,10.1452C15.8483147688061,10.0903,14.9161147688061,10.0355,13.9290147688061,9.98065L13.8193147688061,9.98065C12.8871147688061,9.92581,12.0645147688061,9.87097,11.2419147688061,9.70645C10.6935147688061,9.59677,9.9806147688061,9.32258,9.4870647688061,8.77419C9.0483547688061,8.17097,8.8838447688061,7.23871,9.1031947688061,6.41613ZM12.7225147688061,15.9581C10.5838147688061,15.7387,8.3902947688061,15.5194,6.4709447688061,14.4774C5.9773947688061,14.2032,5.6483547688061,13.8742,5.4838447688061,13.5452C5.2644847688061,13.0516,5.2644847688061,12.5581,5.5386847688061,12.0097C5.7580347688061,11.571,6.1419047688061,11.1323,6.5806147688061,10.8032C6.6902947688061,10.9129,6.7451347688061,11.0226,6.8548147688061,11.1323C7.7322347688061,12.0645,8.9386847688061,12.7774,10.3645147688061,13.1065C11.4612147688061,13.3806,12.5580147688061,13.4355,13.6000147688061,13.4903L13.7096147688061,13.4903C14.0387147688061,13.4903,14.367714768806099,13.5452,14.6967147688061,13.5452L13.270914768806099,16.0129C13.1612147688061,15.9581,12.9419147688061,15.9581,12.7225147688061,15.9581ZM10.7483147688061,27.2548C8.8838447688061,27.6387,7.2935247688061,27.6387,5.8677147688061,27.3645C5.0451347688061,27.2,4.3870647688061,26.9258,4.0031947688061,26.5968C3.6741647688061,26.3226,3.5096547688061,25.9387,3.5644847688061,25.6645C3.6193247688061,25.5,3.7838447688061,25.2258,4.0031947688061,25.0065C4.8257747688061,24.2387,6.1967447688060995,23.8548,7.6773947688061,23.9645C9.212874768806099,24.0742,10.8032147688061,24.6774,12.229014768806099,25.3355C12.8871147688061,25.6097,13.6000147688061,25.9387,14.2580147688061,26.2677C13.1064147688061,26.7065,11.9000147688061,27.0355,10.7483147688061,27.2548ZM21.6612147688061,22.5387C21.3871147688061,23.2516,20.5645147688061,23.9645,19.3580147688061,24.6226C19.2483147688061,24.6774,19.1387147688061,24.7323,19.0290147688061,24.7871C17.3838147688061,23.8548,15.6290147688061,22.9774,13.8742147688061,22.2097L15.2451147688061,19.7968C15.4096147688061,19.7968,15.5742147688061,19.8516,15.7387147688061,19.8516C16.5612147688061,19.9613,17.3838147688061,20.071,18.2064147688061,20.1258C19.7419147688061,20.2903,20.7838147688061,20.6194,21.3322147688061,21.0581C21.7709147688061,21.4419,21.8806147688061,21.9903,21.6612147688061,22.5387ZM27.8032147688061,25.7742C26.8709147688061,26.7613,25.6096147688061,27.3645,24.4580147688061,27.3097C23.8548147688061,27.2548,23.2516147688061,27.0903,22.5935147688061,26.7613C23.7451147688061,25.9387,24.512914768806098,24.9516,24.9516147688061,23.8548C25.3354147688061,22.9226,25.3903147688061,21.8806,25.2258147688061,20.9484C25.0064147688061,19.9613,24.4580147688061,19.0839,23.6903147688061,18.371C23.0322147688061,17.7677,22.1548147688061,17.329,21.0580147688061,17.0548C20.3451147688061,16.8355,19.5774147688061,16.7258,18.5903147688061,16.6161C18.1516147688061,16.5613,17.6580147688061,16.5065,17.2193147688061,16.4516L18.7000147688061,13.8742C19.6871147688061,13.9839,20.6742147688061,14.0935,21.5516147688061,14.2581C23.3612147688061,14.5323,25.2806147688061,14.9161,26.7613147688061,15.9032C28.4613147688061,17,29.5580147688061,19.029,29.6129147688061,21.0581C29.6677147688061,22.7032,28.9548147688061,24.5129,27.8032147688061,25.7742Z" fill="#FFFFFF" fill-opacity="1"/></g><g><g><path d="M67.99977276000976,5.7580536007881165L60.37717276000977,26.870953600788116L57.03207276000977,26.870953600788116L54.39977276000977,20.235453600788116L52.151372760009764,13.545153600788115L49.957872760009764,20.290353600788116L47.380472760009766,26.870953600788116L43.98043276000976,26.870953600788116L36.248172760009766,5.7580536007881165L40.690102760009765,5.7580536007881165L45.680432760009765,21.003253600788117L50.835272760009765,5.7580536007881165L53.41267276000977,5.7580536007881165L58.67717276000977,21.003253600788117L63.50297276000977,5.7580536007881165L67.99977276000976,5.7580536007881165Z" fill="#FFFFFF" fill-opacity="1"/></g><g><path d="M82.64175375671387,20.72901804962158L71.01591375671387,20.72901804962158C71.23526375671386,22.593518049621583,72.88043375671387,23.90961804962158,75.45785375671386,23.90961804962158C76.82882375671386,23.90961804962158,78.58365375671387,23.41611804962158,79.46105375671387,22.538718049621583L81.81915375671386,24.841918049621583C80.22885375671387,26.487118049621582,77.70625375671386,27.254818049621583,75.40302375671386,27.254818049621583C70.24818375671387,27.254818049621583,67.23205375671387,24.07421804962158,67.23205375671387,19.30321804962158C67.23205375671387,14.532248049621582,70.30301375671387,11.516118049621582,75.12882375671387,11.516118049621582C80.11915375671387,11.516118049621582,83.24495375671387,14.587088049621581,82.64175375671387,20.72901804962158ZM71.07076375671387,17.712888049621583L79.07725375671387,17.712888049621583C78.85785375671387,15.793538049621581,77.32235375671387,14.806438049621581,75.23850375671387,14.806438049621581C73.26430375671387,14.806438049621581,71.61914375671387,15.738698049621583,71.07076375671387,17.712888049621583Z" fill="#FFFFFF" fill-opacity="1"/></g><g><path d="M101.28687123413086,9.212889238433839L98.10627123413086,10.85804923843384C97.39337123413085,9.651599238433839,95.36427123413085,8.499989238433837,93.11591123413086,8.499989238433837C90.15462123413086,8.499989238433837,88.72881123413086,9.761279238433838,88.72881123413086,11.296759238433838C88.72881123413086,13.161279238433838,90.92236123413086,13.654829238433837,93.44494123413085,13.929019238433838C97.83207123413086,14.477409238433838,101.94497123413086,15.629009238433838,101.94497123413086,20.67420923843384C101.94497123413086,25.390309238433836,97.77717123413086,27.419309238433836,93.06107123413086,27.419309238433836C88.72882123413086,27.419309238433836,85.43850123413085,26.103209238433838,83.84817123413086,22.209709238433838L87.19333123413085,20.509709238433835C88.12559123413087,22.81290923843384,90.59333123413086,23.854809238433837,93.11592123413087,23.854809238433837C95.63847123413086,23.854809238433837,97.99657123413085,22.97740923843384,97.99657123413085,20.67420923843384C97.99657123413085,18.700009238433836,95.91267123413085,17.877409238433838,93.11592123413087,17.548409238433837C88.78366123413086,17.05480923843384,84.83526923413086,15.903209238433838,84.83526923413086,11.132249238433838C84.83526923413086,6.799989238433838,89.11269123413086,4.990309238433838,93.00623123413087,4.990309238433838C96.29657123413085,4.9903118533438375,99.69657123413086,5.922570238433838,101.28687123413086,9.212889238433839Z" fill="#FFFFFF" fill-opacity="1"/></g><g><path d="M104.30301284790039,5.7580536007881165L107.97720284790039,5.7580536007881165L107.97720284790039,14.038703600788116C109.29333284790039,12.338703600788117,110.93849284790039,11.790313600788117,112.6384928479004,11.790313600788117C116.86111284790039,11.790313600788117,118.7256128479004,14.641923600788116,118.7256128479004,19.029053600788117L118.7256128479004,26.870953600788116L115.0514128479004,26.870953600788116L115.0514128479004,19.029053600788117C115.0514128479004,16.287053600788116,113.62559284790039,15.190313600788116,111.65140284790039,15.190313600788116C109.4578528479004,15.190313600788116,107.97721284790039,17.054853600788114,107.97721284790039,19.248353600788114L107.97721284790039,26.870953600788116L104.30302121562039,26.870953600788116L104.30301284790039,5.7580536007881165Z" fill="#FFFFFF" fill-opacity="1"/></g><g><path d="M128.70624235717773,11.680634021759033C133.42237235717772,11.680634021759033,136.49337235717775,15.190314021759033,136.49337235717775,19.412894021759033C136.49337235717775,23.635434021759032,133.58687235717773,27.145134021759034,128.76108235717774,27.145134021759034C123.93527235717774,27.145134021759034,121.02881708417773,23.690334021759035,121.02881708417773,19.412894021759033C120.97399175717773,15.190314021759033,123.93528235717774,11.680634021759033,128.70624235717773,11.680634021759033ZM128.70624235717773,15.025794021759033C126.07398235717774,15.025794021759033,124.64818235717773,17.219344021759035,124.64818235717773,19.412894021759033C124.64818235717773,21.60644402175903,126.01915235717773,23.800034021759032,128.70624235717773,23.800034021759032C131.39337235717773,23.800034021759032,132.76427235717773,21.661284021759034,132.76427235717773,19.412894021759033C132.76427235717773,17.164504021759033,131.17397235717775,15.025794021759033,128.70624235717773,15.025794021759033Z" fill="#FFFFFF" fill-opacity="1"/></g><g><path d="M147.18688627319335,23.6354963180542C149.70948627319336,23.6354963180542,151.40948627319335,21.7160963180542,151.40948627319335,19.412896318054198C151.40948627319335,17.1096663180542,149.81918627319337,15.1903063180542,147.18688627319335,15.1903063180542C144.55463627319335,15.1903063180542,142.96429627319336,17.1096663180542,142.96429627319336,19.412896318054198C142.96429627319336,21.7160963180542,144.66429627319337,23.6354963180542,147.18688627319335,23.6354963180542ZM142.63527627319337,33.6709963180542L138.96108627319336,33.6709963180542L138.96108627319336,11.9548273180542L142.41592627319335,11.9548273180542L142.63527627319337,13.9838563180542C143.78689627319335,12.3386993180542,145.76108627319337,11.6257963180542,147.46107627319336,11.6257963180542C152.06748627319337,11.6257963180542,155.08368627319336,15.0257963180542,155.08368627319336,19.412896318054198C155.08368627319336,23.7999963180542,152.34168627319335,27.199996318054197,147.57074627319335,27.199996318054197C145.98042627319336,27.199996318054197,143.67719627319335,26.7063963180542,142.63526627319337,25.061296318054197L142.63527627319337,33.6709963180542Z" fill="#FFFFFF" fill-opacity="1"/></g></g><g><g><path d="M169.61591942871092,5.703214645385742L159.79978942871094,27.583814645385743L164.29656942871094,27.583814645385743L166.16107942871093,23.470914645385744L177.62238942871093,23.470914645385744L179.48688942871092,27.583814645385743L183.98368942871093,27.583814645385743L174.16748942871095,5.703215691355743L169.61591942871092,5.703214645385742ZM167.80624942871094,19.632214645385744L171.86428942871095,10.309664645385741L175.92238942871094,19.632214645385744L167.80624942871094,19.632214645385744Z" fill="#FFFFFF" fill-opacity="1"/></g><g><rect x="186.01270294189453" y="5.703214645385742" width="4.112903118133545" height="21.880645751953125" rx="0" fill="#FFFFFF" fill-opacity="1"/></g></g></g></svg>