<svg xmlns="http://www.w3.org/2000/svg" xmlns:xlink="http://www.w3.org/1999/xlink" fill="none" version="1.1" width="40" height="40" viewBox="0 0 40 40"><g><g style="opacity:0;"><rect x="0" y="0" width="40" height="40" rx="0" fill="#000000" fill-opacity="1"/></g><g><path d="M37.5,20Q37.5,20.4296,37.4789,20.8587Q37.4578,21.2878,37.4157,21.7153Q37.3736,22.1428,37.3106,22.5678Q37.2476,22.9927,37.1637,23.4141Q37.0799,23.8354,36.9755,24.2521Q36.8712,24.6689,36.7465,25.08Q36.6217,25.4911,36.477,25.8956Q36.3323,26.3001,36.1679,26.697Q36.0035,27.0939,35.8198,27.4822Q35.6361,27.8706,35.4336,28.2494Q35.2311,28.6283,35.0103,28.9968Q34.7894,29.3653,34.5507,29.7225Q34.312,30.0797,34.0561,30.4247Q33.800200000000004,30.7698,33.527699999999996,31.1019Q33.2551,31.434,32.9666,31.7523Q32.6781,32.0706,32.3744,32.3744Q32.0706,32.6781,31.7523,32.9666Q31.434,33.2551,31.1019,33.527699999999996Q30.7698,33.800200000000004,30.4247,34.0561Q30.0797,34.312,29.7225,34.5507Q29.3653,34.7894,28.9968,35.0103Q28.6283,35.2311,28.2494,35.4336Q27.8706,35.6361,27.4822,35.8198Q27.0939,36.0035,26.697,36.1679Q26.3001,36.3323,25.8956,36.477Q25.4911,36.6217,25.08,36.7465Q24.6689,36.8712,24.2522,36.9755Q23.8354,37.0799,23.4141,37.1637Q22.9927,37.2476,22.5678,37.3106Q22.1428,37.3736,21.7153,37.4157Q21.2878,37.4578,20.8587,37.4789Q20.4296,37.5,20,37.5Q19.5704,37.5,19.1413,37.4789Q18.7122,37.4578,18.2847,37.4157Q17.8572,37.3736,17.4322,37.3106Q17.0073,37.2476,16.585900000000002,37.1637Q16.1646,37.0799,15.7478,36.9755Q15.3311,36.8712,14.92,36.7465Q14.5089,36.6217,14.1044,36.477Q13.6999,36.3323,13.303,36.1679Q12.9061,36.0035,12.5178,35.8198Q12.12943,35.6361,11.75056,35.4336Q11.37168,35.2311,11.0032,35.0103Q10.63472,34.7894,10.277519999999999,34.5507Q9.92032,34.312,9.57526,34.0561Q9.2302,33.800200000000004,8.898119999999999,33.527699999999996Q8.56603,33.2551,8.247720000000001,32.9666Q7.9294,32.6781,7.62563,32.3744Q7.32186,32.0706,7.03335,31.7523Q6.74485,31.434,6.47232,31.1019Q6.1997800000000005,30.7698,5.94387,30.4247Q5.68795,30.0797,5.44928,29.7225Q5.21061,29.3653,4.98975,28.9968Q4.76889,28.6283,4.5663800000000005,28.2494Q4.36387,27.8706,4.18019,27.4822Q3.99651,27.0939,3.83211,26.697Q3.66771,26.3001,3.52298,25.8956Q3.378251,25.4911,3.2535439999999998,25.08Q3.128837,24.6689,3.024453,24.2522Q2.920068,23.8354,2.836258,23.4141Q2.752447,22.9927,2.6894109999999998,22.5678Q2.626376,22.1428,2.5842673,21.7153Q2.542159,21.2878,2.5210795,20.8587Q2.5,20.4296,2.5,20Q2.5,19.5704,2.5210795,19.1413Q2.542159,18.7122,2.5842673,18.2847Q2.626376,17.8572,2.6894109999999998,17.4322Q2.752447,17.0073,2.836258,16.585900000000002Q2.920068,16.1646,3.024453,15.7478Q3.128837,15.3311,3.2535439999999998,14.92Q3.378251,14.5089,3.52298,14.1044Q3.66771,13.6999,3.83211,13.303Q3.99651,12.9061,4.18019,12.5178Q4.36387,12.12943,4.5663800000000005,11.75056Q4.76889,11.37168,4.98975,11.0032Q5.21061,10.63472,5.44928,10.277519999999999Q5.68795,9.92032,5.94387,9.57526Q6.1997800000000005,9.2302,6.47232,8.898119999999999Q6.74485,8.56603,7.03335,8.247720000000001Q7.32186,7.9294,7.62563,7.62563Q7.9294,7.32186,8.247720000000001,7.03335Q8.56603,6.74485,8.898119999999999,6.47232Q9.2302,6.1997800000000005,9.57526,5.94387Q9.92032,5.68795,10.277519999999999,5.44928Q10.63472,5.21061,11.0032,4.98975Q11.37168,4.76889,11.75056,4.5663800000000005Q12.12943,4.36387,12.5178,4.18019Q12.9061,3.99651,13.303,3.83211Q13.6999,3.66771,14.1044,3.52298Q14.5089,3.378251,14.92,3.2535439999999998Q15.3311,3.128837,15.7478,3.024453Q16.1646,2.920068,16.585900000000002,2.836258Q17.0073,2.752447,17.4322,2.6894109999999998Q17.8572,2.626376,18.2847,2.5842673Q18.7122,2.542159,19.1413,2.5210795Q19.5704,2.5,20,2.5Q20.4296,2.5,20.8587,2.5210795Q21.2878,2.542159,21.7153,2.5842673Q22.1428,2.626376,22.5678,2.6894109999999998Q22.9927,2.752447,23.4141,2.836258Q23.8354,2.920068,24.2521,3.024453Q24.6689,3.128837,25.08,3.2535439999999998Q25.4911,3.378251,25.8956,3.52298Q26.3001,3.66771,26.697,3.83211Q27.0939,3.99651,27.4822,4.18019Q27.8706,4.36387,28.2494,4.5663800000000005Q28.6283,4.76889,28.9968,4.98975Q29.3653,5.21061,29.7225,5.44928Q30.0797,5.68795,30.4247,5.94387Q30.7698,6.1997800000000005,31.1019,6.47232Q31.434,6.74485,31.7523,7.03335Q32.0706,7.32186,32.3744,7.62563Q32.6781,7.9294,32.9666,8.247720000000001Q33.2551,8.56603,33.527699999999996,8.898119999999999Q33.800200000000004,9.2302,34.0561,9.57526Q34.312,9.92032,34.5507,10.277519999999999Q34.7894,10.63472,35.0103,11.0032Q35.2311,11.37168,35.4336,11.75056Q35.6361,12.12943,35.8198,12.5178Q36.0035,12.9061,36.1679,13.303Q36.3323,13.6999,36.477,14.1044Q36.6217,14.5089,36.7465,14.92Q36.8712,15.3311,36.9755,15.7478Q37.0799,16.1646,37.1637,16.585900000000002Q37.2476,17.0073,37.3106,17.4322Q37.3736,17.8572,37.4157,18.2847Q37.4578,18.7122,37.4789,19.1413Q37.5,19.5704,37.5,20Z" fill="#000000" fill-opacity="1"/></g><g><path d="M25.628902500000002,20.269529606018068L17.0976565,26.476569606018067C17.0429685,26.515669606018065,16.9804685,26.535169606018066,16.9140625,26.535169606018066C16.7421875,26.535169606018066,16.6015625,26.394569606018067,16.6015625,26.222669606018066L16.6015625,13.816406606018067C16.6015625,13.749999606018067,16.6210937,13.687499606018067,16.6601563,13.632812606018067C16.7617185,13.492187406018067,16.9570315,13.460937406018067,17.0976565,13.562499906018067L25.628902500000002,19.765629606018067C25.6562525,19.785159606018066,25.6796825,19.808589606018067,25.699222499999998,19.835939606018066C25.8007825,19.972659606018066,25.7695325,20.167969606018065,25.628902500000002,20.269529606018068Z" fill-rule="evenodd" fill="#FFFFFF" fill-opacity="1"/></g></g></svg>