<svg xmlns="http://www.w3.org/2000/svg" xmlns:xlink="http://www.w3.org/1999/xlink" fill="none" version="1.1" width="192" height="34" viewBox="0 0 192 34"><g><g></g><g><path d="M33.17713125,20.9484C33.12223125,19.3581,32.73843125,17.7677,31.97063125,16.3968C31.20293125,14.971,30.10613125,13.7645,28.73513125,12.8871C26.70613125,11.571,24.34803125,11.0226,22.15453125,10.6936C21.66093125,10.6387,21.16743125,10.5839,20.67393125,10.4742L25.71903125,1.75484L22.59323125,0L20.72873125,3.23548C19.96093125,2.74194,19.08353125,2.24839,18.09643125,1.80968C16.99973125,1.31613,15.84803125,0.822581,14.47713125,0.712903C13.27063125,0.603226,11.89973125,0.493549,10.58353125,0.932258C10.19973125,1.04194,9.81582125,1.20645,9.48678125,1.37097C7.56743125,2.24839,6.19646125,3.67419,5.70291125,5.37419C5.53840125,5.97742,5.42872125,6.63548,5.42872125,7.29355C4.11259125,7.95161,3.01582125,9.04839,2.35775125,10.3645C1.64485125,11.9,1.64485125,13.5452,2.30291125,14.971C2.74162125,15.9581,3.61904125,16.8355,4.71582125,17.4935C5.86743125,18.1516,7.12872125,18.6452,8.60937125,18.9194C9.54162125,19.1387,10.41903125,19.2484,11.40613125,19.3581L10.52873125,20.8935C9.70614125,20.6742,8.88356125,20.5097,8.006141249999999,20.4C5.53840125,20.1806,3.23517125,20.8935,1.64485125,22.3742C0.82226925,23.0871,0.32872025,23.9645,0.10936585,24.8968C-0.05515035,25.7194,-0.0003115500000000007,26.5419,0.32872025,27.3645C0.60291425,28.0774,1.09646125,28.7355,1.64485125,29.229C2.52227125,29.9968,3.67388125,30.5452,5.20936125,30.8194C6.03195125,30.9839,6.90936125,31.0387,7.84162125,31.0387C8.93840125,31.0387,10.14483125,30.929,11.46093125,30.6548C12.94163125,30.3806,14.36743125,29.9419,15.79323125,29.5581C16.17713125,29.4484,16.56093125,29.3387,16.89003125,29.229C17.49323125,29.0645,18.09643125,28.8452,18.75453125,28.6806Q18.80933125,28.7355,18.86423125,28.7355C20.39973125,29.6677,22.20933125,30.7097,24.29323125,30.8194C24.40293125,30.8194,24.56743125,30.8194,24.67713125,30.8194C26.81583125,30.8194,28.95453125,29.8323,30.49003125,28.1323C32.19003125,26.2129,33.17713125,23.5258,33.17713125,20.9484Q33.12223125,20.9484,33.17713125,20.9484ZM9.10291125,6.41613C9.37711125,5.42903,10.36423125,4.88065,10.91263125,4.60645C11.13193125,4.49677,11.40613125,4.3871,11.62553125,4.33226C12.33843125,4.1129,13.27063125,4.16774,14.14803125,4.27742C14.97063125,4.33226,15.73843125,4.66129,16.61583125,5.1C17.49323125,5.48387,18.26093125,5.92258,18.91903125,6.36129L16.72553125,10.1452C15.84803125,10.0903,14.91583125,10.0355,13.92873125,9.98065L13.81903125,9.98065C12.88683125,9.92581,12.06423125,9.87097,11.24163125,9.70645C10.69323125,9.59677,9.98033125,9.32258,9.48678125,8.77419C9.04807125,8.17097,8.88356125,7.23871,9.10291125,6.41613ZM12.72223125,15.9581C10.58353125,15.7387,8.39001125,15.5194,6.47066125,14.4774C5.97711125,14.2032,5.64807125,13.8742,5.48356125,13.5452C5.26420125,13.0516,5.26420125,12.5581,5.53840125,12.0097C5.75775125,11.571,6.14162125,11.1323,6.58033125,10.8032C6.69001125,10.9129,6.74485125,11.0226,6.85453125,11.1323C7.73195125,12.0645,8.93840125,12.7774,10.36423125,13.1065C11.46093125,13.3806,12.55773125,13.4355,13.59973125,13.4903L13.70933125,13.4903C14.03843125,13.4903,14.36743125,13.5452,14.69643125,13.5452L13.27063125,16.0129C13.16093125,15.9581,12.94163125,15.9581,12.72223125,15.9581ZM10.74803125,27.2548C8.88356125,27.6387,7.29324125,27.6387,5.86743125,27.3645C5.04485125,27.2,4.38678125,26.9258,4.00291125,26.5968C3.67388125,26.3226,3.50937125,25.9387,3.56420125,25.6645C3.61904125,25.5,3.78356125,25.2258,4.00291125,25.0065C4.82549125,24.2387,6.19646125,23.8548,7.67711125,23.9645C9.21259125,24.0742,10.80293125,24.6774,12.22873125,25.3355C12.88683125,25.6097,13.59973125,25.9387,14.25773125,26.2677C13.10613125,26.7065,11.89973125,27.0355,10.74803125,27.2548ZM21.66093125,22.5387C21.38683125,23.2516,20.56423125,23.9645,19.35773125,24.6226C19.24803125,24.6774,19.13843125,24.7323,19.02873125,24.7871C17.38353125,23.8548,15.62873125,22.9774,13.87393125,22.2097L15.24483125,19.7968C15.40933125,19.7968,15.57393125,19.8516,15.73843125,19.8516C16.56093125,19.9613,17.38353125,20.071,18.20613125,20.1258C19.74163125,20.2903,20.78353125,20.6194,21.33193125,21.0581C21.77063125,21.4419,21.88033125,21.9903,21.66093125,22.5387ZM27.80293125,25.7742C26.87063125,26.7613,25.60933125,27.3645,24.45773125,27.3097C23.85453125,27.2548,23.25133125,27.0903,22.59323125,26.7613C23.74483125,25.9387,24.51263125,24.9516,24.95133125,23.8548C25.33513125,22.9226,25.39003125,21.8806,25.22553125,20.9484C25.00613125,19.9613,24.45773125,19.0839,23.69003125,18.371C23.03193125,17.7677,22.15453125,17.329,21.05773125,17.0548C20.34483125,16.8355,19.57713125,16.7258,18.59003125,16.6161C18.15133125,16.5613,17.65773125,16.5065,17.21903125,16.4516L18.69973125,13.8742C19.68683125,13.9839,20.67393125,14.0935,21.55133125,14.2581C23.36093125,14.5323,25.28033125,14.9161,26.76103125,15.9032C28.46103125,17,29.55773125,19.029,29.61263125,21.0581C29.66743125,22.7032,28.95453125,24.5129,27.80293125,25.7742Z" fill="#7530FE" fill-opacity="1"/></g><g><g><path d="M67.999646875,5.757887363433838L60.377046875000005,26.870787363433838L57.031946875,26.870787363433838L54.399646875,20.235287363433837L52.151246875,13.544987363433837L49.957746875,20.290187363433837L47.380346875,26.870787363433838L43.980306875,26.870787363433838L36.248046875,5.757887363433838L40.689976875,5.757887363433838L45.680306875,21.00308736343384L50.835146875,5.757887363433838L53.412546875000004,5.757887363433838L58.677046875,21.00308736343384L63.502846875,5.757887363433838L67.999646875,5.757887363433838Z" fill="#282828" fill-opacity="1"/></g><g><path d="M82.6411453125,20.72901804962158L71.0153053125,20.72901804962158C71.2346553125,22.593518049621583,72.8798253125,23.90961804962158,75.45724531249999,23.90961804962158C76.82821531249999,23.90961804962158,78.5830453125,23.41611804962158,79.4604453125,22.538718049621583L81.81854531249999,24.841918049621583C80.22824531250001,26.487118049621582,77.7056453125,27.254818049621583,75.4024153125,27.254818049621583C70.2475753125,27.254818049621583,67.2314453125,24.07421804962158,67.2314453125,19.30321804962158C67.2314453125,14.532248049621582,70.3024053125,11.516118049621582,75.1282153125,11.516118049621582C80.1185453125,11.516118049621582,83.2443453125,14.587088049621581,82.6411453125,20.72901804962158ZM71.0701553125,17.712888049621583L79.0766453125,17.712888049621583C78.8572453125,15.793538049621581,77.3217453125,14.806438049621581,75.2378953125,14.806438049621581C73.2636953125,14.806438049621581,71.6185353125,15.738698049621583,71.0701553125,17.712888049621583Z" fill="#282828" fill-opacity="1"/></g><g><path d="M101.28635625,9.212889238433839L98.10575625,10.85804923843384C97.39285625,9.651599238433839,95.36375625,8.499989238433837,93.11539625,8.499989238433837C90.15410625,8.499989238433837,88.72829625,9.761279238433838,88.72829625,11.296759238433838C88.72829625,13.161279238433838,90.92184625,13.654829238433837,93.44442624999999,13.929019238433838C97.83155625,14.477409238433838,101.94445625,15.629009238433838,101.94445625,20.67420923843384C101.94445625,25.390309238433836,97.77665625,27.419309238433836,93.06055625,27.419309238433836C88.72830625,27.419309238433836,85.43798625,26.103209238433838,83.84765625,22.209709238433838L87.19281624999999,20.509709238433835C88.12507625,22.81290923843384,90.59281625,23.854809238433837,93.11540625,23.854809238433837C95.63795625,23.854809238433837,97.99605625,22.97740923843384,97.99605625,20.67420923843384C97.99605625,18.700009238433836,95.91215625,17.877409238433838,93.11540625,17.548409238433837C88.78314625,17.05480923843384,84.83475425,15.903209238433838,84.83475425,11.132249238433838C84.83475425,6.799989238433838,89.11217625,4.990309238433838,93.00571625,4.990309238433838C96.29605624999999,4.9903118533438375,99.69605625,5.922570238433838,101.28635625,9.212889238433839Z" fill="#282828" fill-opacity="1"/></g><g><path d="M104.302734375,5.757887363433838L107.976924375,5.757887363433838L107.976924375,14.038537363433838C109.293054375,12.338537363433838,110.938214375,11.790147363433839,112.638214375,11.790147363433839C116.860834375,11.790147363433839,118.725334375,14.641757363433838,118.725334375,19.02888736343384L118.725334375,26.870787363433838L115.051134375,26.870787363433838L115.051134375,19.02888736343384C115.051134375,16.286887363433838,113.625314375,15.190147363433837,111.651124375,15.190147363433837C109.45757437500001,15.190147363433837,107.976934375,17.054687363433835,107.976934375,19.248187363433836L107.976934375,26.870787363433838L104.30274274272,26.870787363433838L104.302734375,5.757887363433838Z" fill="#282828" fill-opacity="1"/></g><g><path d="M128.7064903125,11.680738925933838C133.4226203125,11.680738925933838,136.4936203125,15.190418925933837,136.4936203125,19.412998925933838C136.4936203125,23.635538925933837,133.5871203125,27.14523892593384,128.7613303125,27.14523892593384C123.9355203125,27.14523892593384,121.0290650395,23.69043892593384,121.0290650395,19.412998925933838C120.9742397125,15.190418925933837,123.9355303125,11.680738925933838,128.7064903125,11.680738925933838ZM128.7064903125,15.025898925933838C126.0742303125,15.025898925933838,124.6484303125,17.21944892593384,124.6484303125,19.412998925933838C124.6484303125,21.606548925933836,126.0194003125,23.800138925933837,128.7064903125,23.800138925933837C131.3936203125,23.800138925933837,132.7645203125,21.66138892593384,132.7645203125,19.412998925933838C132.7645203125,17.164608925933837,131.1742203125,15.025898925933838,128.7064903125,15.025898925933838Z" fill="#282828" fill-opacity="1"/></g><g><path d="M147.1867603881836,23.63526314468384C149.7093603881836,23.63526314468384,151.4093603881836,21.715863144683837,151.4093603881836,19.412663144683837C151.4093603881836,17.109433144683837,149.8190603881836,15.190073144683838,147.1867603881836,15.190073144683838C144.5545103881836,15.190073144683838,142.9641703881836,17.109433144683837,142.9641703881836,19.412663144683837C142.9641703881836,21.715863144683837,144.6641703881836,23.63526314468384,147.1867603881836,23.63526314468384ZM142.6351503881836,33.67076314468384L138.9609603881836,33.67076314468384L138.9609603881836,11.954594144683838L142.41580038818358,11.954594144683838L142.6351503881836,13.983623144683838C143.78677038818358,12.338466144683839,145.7609603881836,11.625563144683838,147.4609503881836,11.625563144683838C152.0673603881836,11.625563144683838,155.0835603881836,15.025563144683838,155.0835603881836,19.412663144683837C155.0835603881836,23.799763144683837,152.34156038818358,27.199763144683835,147.57062038818358,27.199763144683835C145.9803003881836,27.199763144683835,143.67707038818358,26.70616314468384,142.6351403881836,25.061063144683835L142.6351503881836,33.67076314468384Z" fill="#282828" fill-opacity="1"/></g></g><g><g><path d="M169.61591942871092,5.703214645385742L159.79978942871094,27.583814645385743L164.29656942871094,27.583814645385743L166.16107942871093,23.470914645385744L177.62238942871093,23.470914645385744L179.48688942871092,27.583814645385743L183.98368942871093,27.583814645385743L174.16748942871095,5.703215691355743L169.61591942871092,5.703214645385742ZM167.80624942871094,19.632214645385744L171.86428942871095,10.309664645385741L175.92238942871094,19.632214645385744L167.80624942871094,19.632214645385744Z" fill="#7530FE" fill-opacity="1"/></g><g><rect x="186.01270294189453" y="5.703214645385742" width="4.112903118133545" height="21.880645751953125" rx="0" fill="#7530FE" fill-opacity="1"/></g></g></g></svg>