<svg xmlns="http://www.w3.org/2000/svg" xmlns:xlink="http://www.w3.org/1999/xlink" fill="none" version="1.1" width="12" height="12" viewBox="0 0 12 12"><g><g style="opacity:0;"><rect x="0" y="0" width="12" height="12" rx="0" fill="#FFFFFF" fill-opacity="1"/></g><g transform="matrix(0.7071067690849304,-0.7071067690849304,0.7071067690849304,0.7071067690849304,-3.3054232333265077,2.1975783373750915)"><path d="M1.000244141,5.838788032531738L1.000244141,11.338788032531738L1.00027335,11.345408032531738L1.000244617,11.351968032531738Q1.000244617,11.425838032531738,1.0146557,11.49828803253174Q1.0290667,11.57073803253174,1.057335,11.638988032531739Q1.0856032,11.707228032531738,1.126642,11.768648032531738Q1.167682,11.830068032531738,1.219915,11.88229803253174Q1.272147,11.934538032531737,1.333567,11.97557803253174Q1.394986,12.016608032531739,1.463232,12.044878032531738Q1.531478,12.073148032531737,1.603927,12.087558032531739Q1.6763759999999999,12.101968032531738,1.750245,12.101968032531738L7.25024,12.101968032531738Q7.32411,12.101968032531738,7.39656,12.087558032531739Q7.46901,12.073148032531737,7.53726,12.044878032531738Q7.6055,12.016608032531739,7.66692,11.97557803253174Q7.72834,11.934538032531737,7.78057,11.88229803253174Q7.83281,11.830068032531738,7.87385,11.768648032531738Q7.91489,11.707228032531738,7.94315,11.638988032531739Q7.97142,11.57073803253174,7.98583,11.49828803253174Q8.00024,11.425838032531738,8.00024,11.351968032531738Q8.00024,11.278108032531739,7.98583,11.205658032531737Q7.97142,11.133208032531737,7.94315,11.064958032531738Q7.91489,10.996708032531739,7.87385,10.935298032531739Q7.83281,10.873878032531739,7.78057,10.821638032531737Q7.72834,10.76940803253174,7.66692,10.728368032531737Q7.6055,10.687328032531738,7.53726,10.659058032531739Q7.46901,10.63079803253174,7.39656,10.616378032531738Q7.32411,10.601968032531738,7.25024,10.601968032531738L2.50024,10.601968032531738L2.50024,5.838788032531738Q2.50024,5.764919032531738,2.48583,5.692470032531738Q2.47142,5.620021032531739,2.44315,5.551775032531738Q2.4148899999999998,5.483530032531738,2.37385,5.422110032531738Q2.3328100000000003,5.360691032531738,2.28057,5.308458032531738Q2.22834,5.256225032531738,2.16692,5.215186032531738Q2.1055,5.1741466325317385,2.03726,5.145878332531738Q1.969011,5.1176101325317385,1.8965619999999999,5.103199032531738Q1.824113,5.088788032531738,1.750244,5.088788032531738Q1.676375,5.088788032531738,1.603926,5.103199032531738Q1.531477,5.1176101325317385,1.463232,5.145878332531738Q1.394986,5.1741466325317385,1.333566,5.215186032531738Q1.272147,5.256225032531738,1.219914,5.308458032531738Q1.167681,5.360691032531738,1.126642,5.422110032531738Q1.0856028,5.483530032531738,1.0573345,5.551775032531738Q1.0290662,5.620021032531739,1.0146552,5.692470032531738Q1.000244141,5.764919032531738,1.000244141,5.838788032531738Z" fill-rule="evenodd" fill="#FFFFFF" fill-opacity="1"/></g></g></svg>