<svg xmlns="http://www.w3.org/2000/svg" xmlns:xlink="http://www.w3.org/1999/xlink" fill="none" version="1.1" width="18" height="18" viewBox="0 0 18 18"><g><g></g><g><g><path d="M15.7173,2.0258729457855225L2.27977,2.0258729457855225C1.572971,2.0258727643925223,0.999999816928,2.5935869457855225,1,3.2939029457855225L1,15.974172945785522C0.999999816928,16.674472945785524,1.572971,17.242172945785523,2.27977,17.242172945785523L15.7173,17.242172945785523C16.4241,17.242172945785523,16.9971,16.674472945785524,16.9971,15.974172945785522L16.9971,3.2939029457855225C16.9971,2.5935869457855225,16.4241,2.0258729457855225,15.7173,2.0258729457855225ZM2.27977,3.2939029457855225L15.7173,3.2939029457855225L15.7173,15.974172945785522L2.27977,15.974172945785522L2.27977,3.2939029457855225Z" fill="#FFFFFF" fill-opacity="1"/></g><g><path d="M16.357247932624816,6.2341025C16.702447932624818,6.2325725,16.986547932624816,6.5025625,16.999547932624814,6.8443125C17.012447932624816,7.1860825,16.749547932624814,7.4764225,16.405247932624818,7.5005425L16.357247932624816,7.5021225L1.6399229326248168,7.5021225C1.296457932624817,7.5013225,1.014896832624817,7.2319825,1.002006528624817,6.8919125C0.9891162326248168,6.5518325,1.249495932624817,6.2623325,1.591931932624817,6.2360025L1.6399229326248168,6.2341025L16.357247932624816,6.2341025ZM5.479227932624817,0.7578125C5.814077932624817,0.757707836,6.092387932624817,1.0134225,6.117507932624817,1.3442745L6.119107932624817,1.3918255L6.119107932624817,3.9278825C6.120647932624817,4.2698725,5.848157932624817,4.5514425,5.503237932624817,4.5642724999999995C5.158317932624817,4.5771125,4.865287932624817,4.3165724999999995,4.840937932624817,3.9754325L4.839337932624817,3.9278825L4.839337932624817,1.3918255C4.839337932624817,1.0416695,5.125827932624817,0.7578125,5.479227932624817,0.7578125ZM12.517947932624818,0.7578125C12.852847932624817,0.757707474,13.131147932624817,1.0134225,13.156247932624817,1.3442745L13.157847932624817,1.3918255L13.157847932624817,3.9278825C13.159347932624817,4.2698725,12.886847932624818,4.5514425,12.541947932624817,4.5642724999999995C12.197047932624816,4.5771125,11.904047932624817,4.3165724999999995,11.879647932624817,3.9754325L11.878047932624817,3.9278825L11.878047932624817,1.3918255C11.878047932624817,1.0416705,12.164547932624817,0.7578125,12.517947932624818,0.7578125Z" fill="#FFFFFF" fill-opacity="1"/></g></g></g></svg>