<svg xmlns="http://www.w3.org/2000/svg" xmlns:xlink="http://www.w3.org/1999/xlink" fill="none" version="1.1" width="14" height="14" viewBox="0 0 14 14"><g><path d="M6.99695,6.31013e-7C3.13158,0.00156557,-0.000469483,3.13584,0,7.00094C0.000469483,10.866,3.13377,13.9995,6.99898,14C10.8642,14.0005,13.9981,10.8682,14,7.00297C14.0016,3.1346,10.8653,-0.00172965,6.99695,6.31013e-7ZM11.0143,5.1856L6.48412,9.71252C6.23511,9.96941,5.82297,9.96941,5.57396,9.71252L2.96742,7.10626C2.71604,6.85488,2.71604,6.44731,2.96741,6.19593C3.21879,5.94455,3.62636,5.94455,3.87773,6.19593L6.03812,8.35634L10.1162,4.29343C10.367,4.03889,10.7771,4.0374,11.0298,4.29011C11.2825,4.54282,11.2809,4.95297,11.0263,5.20376L11.0143,5.1856Z" fill="#7530FE" fill-opacity="1"/></g></svg>