<svg width="42" height="18" viewBox="0 0 42 18" fill="none" xmlns="http://www.w3.org/2000/svg">
<rect width="42" height="18" rx="4" fill="black" fill-opacity="0.7"/>
<rect width="42" height="18" rx="4" fill="url(#paint0_linear_9874_8745)"/>
<g clip-path="url(#clip0_9874_8745)">
<path d="M7.04505 9.63995H7.75672C8.21695 9.63995 8.59005 10.013 8.59005 10.4733V13.2399C8.59005 14.0799 9.04505 14.2499 9.60005 13.6199L13.3851 9.31995C13.8501 8.79495 13.6551 8.35995 12.9501 8.35995H12.2384C11.7781 8.35995 11.4051 7.98685 11.4051 7.52662V4.75995C11.4051 3.91995 10.9501 3.74995 10.3951 4.37995L6.61005 8.67995C6.15005 9.20995 6.34505 9.63995 7.04505 9.63995Z" fill="url(#paint1_linear_9874_8745)" fill-opacity="0.5"/>
<path d="M7.04456 9.63995H8.58956V13.2399C8.58956 14.0799 9.04456 14.2499 9.59956 13.6199L13.3846 9.31995C13.8496 8.79495 13.6546 8.35995 12.9496 8.35995H11.4046V4.75995C11.4046 3.91995 10.9496 3.74995 10.3946 4.37995L6.60956 8.67995C6.14956 9.20995 6.34456 9.63995 7.04456 9.63995Z" stroke="white" stroke-width="0.833333" stroke-linecap="round" stroke-linejoin="round"/>
</g>
<path d="M18.84 4.432H22.392C24.456 4.432 25.5 5.308 25.5 7.06C25.5 8.824 24.456 9.712 22.368 9.712H20.244V13H18.84V4.432ZM20.244 5.632V8.512H22.284C22.908 8.512 23.364 8.392 23.652 8.176C23.94 7.948 24.084 7.576 24.084 7.06C24.084 6.544 23.928 6.184 23.64 5.968C23.352 5.74 22.896 5.632 22.284 5.632H20.244ZM29.5113 6.628C29.8113 6.628 30.0753 6.676 30.2913 6.784V8.152C29.9793 8.056 29.6913 8.02 29.4033 8.02C29.0433 8.02 28.7193 8.152 28.4313 8.44C28.0953 8.764 27.9393 9.184 27.9393 9.712V13H26.5833V6.796H27.9393V7.684C28.1073 7.372 28.2993 7.132 28.5273 6.964C28.8033 6.736 29.1273 6.628 29.5113 6.628ZM33.9516 6.628C34.8876 6.628 35.6436 6.928 36.2196 7.552C36.7836 8.164 37.0716 8.944 37.0716 9.904C37.0716 10.852 36.7836 11.632 36.2316 12.232C35.6556 12.856 34.8876 13.168 33.9516 13.168C33.0036 13.168 32.2476 12.856 31.6716 12.232C31.1076 11.632 30.8316 10.852 30.8316 9.904C30.8316 8.944 31.1076 8.164 31.6836 7.552C32.2476 6.928 33.0036 6.628 33.9516 6.628ZM33.9516 7.744C33.3756 7.744 32.9436 7.96 32.6316 8.416C32.3676 8.8 32.2356 9.304 32.2356 9.904C32.2356 10.504 32.3676 10.996 32.6316 11.38C32.9436 11.824 33.3756 12.052 33.9516 12.052C34.5156 12.052 34.9596 11.824 35.2716 11.38C35.5356 10.984 35.6796 10.492 35.6796 9.904C35.6796 9.304 35.5356 8.8 35.2716 8.416C34.9596 7.96 34.5156 7.744 33.9516 7.744Z" fill="white"/>
<defs>
<linearGradient id="paint0_linear_9874_8745" x1="2.22997" y1="1.91098e-06" x2="40.9294" y2="12.7528" gradientUnits="userSpaceOnUse">
<stop stop-color="#FFC100"/>
<stop offset="1" stop-color="#FFD703"/>
</linearGradient>
<linearGradient id="paint1_linear_9874_8745" x1="7.37968" y1="12.8464" x2="13.9646" y2="9.20259" gradientUnits="userSpaceOnUse">
<stop stop-color="#FFFF70"/>
<stop offset="1" stop-color="#FFFFD3"/>
</linearGradient>
<clipPath id="clip0_9874_8745">
<rect width="12" height="12" fill="white" transform="translate(4 3)"/>
</clipPath>
</defs>
</svg>
