<svg xmlns="http://www.w3.org/2000/svg" xmlns:xlink="http://www.w3.org/1999/xlink" fill="none" version="1.1" width="18" height="18" viewBox="0 0 18 18"><g><g></g><g><path d="M17,8.988946875C17.002,8.574686875,16.7731,8.193486875,16.4057,7.999046875L14.6388,7.066026875L16.4057,6.133016875C16.7731,5.938576875,17.002,5.557366875,17,5.143116875C17,4.726666875,16.7714,4.3489168750000005,16.4057,4.154346875L9.77028,0.654411875C9.28709,0.404258375,8.71176,0.404258375,8.228570000000001,0.654411875L1.594298,4.153206875C1.226888,4.347656875,0.99803349,4.728856875,1.0000128754,5.143116875C1.0000128754,5.559556875,1.227441,5.938446875,1.594298,6.131876875L3.36001,7.064896875L1.594298,7.997906875C1.226888,8.192346875,0.99803349,8.573556875,1.0000128754,8.987806875C1.0000128754,9.405386875,1.227441,9.784286875,1.594298,9.977716875L3.41715,10.941496875L1.59544,11.897196875C1.227944,12.089396875,0.99841395,12.469296875,1.0000128754,12.882596875C1.0000128754,13.297896875,1.2285840000000001,13.676796875,1.594298,13.867896875L8.23086,17.343996875C8.71181,17.596596875,9.28704,17.596596875,9.768,17.343996875L16.404600000000002,13.867896875C16.771900000000002,13.675496875,17.0013,13.295796875,17,12.882596875C17,12.466096875,16.7714,12.088396875,16.404600000000002,11.896096875L14.5817,10.941396875L16.4057,9.977706875C16.7726,9.784286875,17,9.405386875,17,8.987806875L17,8.988946875ZM8.744,1.627246875C8.9037,1.542696875,9.09516,1.542696875,9.25486,1.627246875L15.8903,5.159046875L9.25486,8.658976875C9.09536,8.742726875,8.904630000000001,8.742726875,8.74514,8.658976875L2.10858,5.128326875L8.74286,1.628386875L8.744,1.627246875ZM15.8914,12.893996875L9.256,16.369996875C9.09554,16.454696875,8.903310000000001,16.454696875,8.74286,16.369996875L2.10858,12.872296875L4.59886,11.568396875L8.228570000000001,13.487896875C8.710899999999999,13.743196875,9.2891,13.743196875,9.77143,13.487896875L13.3977,11.569496875L15.8914,12.893996875ZM9.25371,12.515096875C9.09478,12.599396875,8.90408,12.599396875,8.74514,12.515096875L2.10858,8.973016875L4.53829,7.687276875L8.228570000000001,9.634086875C8.71069,9.886976875,9.28703,9.886976875,9.76914,9.634086875L13.4548,7.688416875L15.8891,9.004876875L9.25257,12.515096875L9.25371,12.515096875Z" fill="#FFFFFF" fill-opacity="1"/></g></g></svg>